<svg height="368pt" viewBox="0 0 368 368.00746" width="368pt" xmlns="http://www.w3.org/2000/svg"><path d="m184.003906 72.007812v-64l-128 32v96h64v176h64v-176h64v128h64v-192zm0 0" fill="#cce4ff"/><path d="m360.003906 304.007812h-24v-40c0-4.425781-3.585937-8-8-8h-8v-184c0-4.425781-3.585937-8-8-8h-56v-56c0-4.425781-3.585937-7.9999995-8-7.9999995-4.417968 0-8 3.5742185-8 7.9999995v56h-48v-56c0-2.464843-1.136718-4.792968-3.082031-6.304687-1.941406-1.519531-4.484375-2.070313-6.863281-1.457031l-128 32c-3.550782.898437-6.054688 4.089844-6.054688 7.761718v264h-40c-4.417968 0-7.99999975 3.574219-7.99999975 8v48c0 4.421876 3.58203175 8 7.99999975 8h352c4.414063 0 8-3.578124 8-8v-48c0-4.425781-3.585937-8-8-8zm-168-224h112v176h-48v-120c0-4.425781-3.585937-8-8-8h-56zm0 64h48v112h-48zm0 128h128v32h-128zm-128-225.753906 112-28v285.753906h-48v-168c0-4.425781-3.585937-8-8-8h-56zm0 97.753906h48v160h-48zm288 208h-336v-32h336zm0 0" fill="#007aff"/></svg>